name D:\school\WTK\thesis\model\3dpredictsim\Results\Batchsim_tmt_linear\Pog_s1_tmt_bCst_d02_k800_ig24.mot
datacolumns 128
datarows 4
range 0.00000000 0.03226612
endheader
time	pelvis_tilt	pelvis_list	pelvis_rotation	pelvis_tx	pelvis_ty	pelvis_tz	hip_flexion_l	hip_adduction_l	hip_rotation_l	hip_flexion_r	hip_adduction_r	hip_rotation_r	knee_angle_l	knee_angle_r	ankle_angle_l	ankle_angle_r	subtalar_angle_l	subtalar_angle_r	tmt_angle_l	tmt_angle_r	mtp_angle_l	mtp_angle_r	lumbar_extension	lumbar_bending	lumbar_rotation	arm_flex_l	arm_add_l	arm_rot_l	arm_flex_r	arm_add_r	arm_rot_r	elbow_flex_l	elbow_flex_r	pro_sup_l	pro_sup_r	glut_med1_l/activation	glut_med2_l/activation	glut_med3_l/activation	glut_min1_l/activation	glut_min2_l/activation	glut_min3_l/activation	semimem_l/activation	semiten_l/activation	bifemlh_l/activation	bifemsh_l/activation	sar_l/activation	add_long_l/activation	add_brev_l/activation	add_mag1_l/activation	add_mag2_l/activation	add_mag3_l/activation	tfl_l/activation	pect_l/activation	grac_l/activation	glut_max1_l/activation	glut_max2_l/activation	glut_max3_l/activation	iliacus_l/activation	psoas_l/activation	quad_fem_l/activation	gem_l/activation	peri_l/activation	rect_fem_l/activation	vas_med_l/activation	vas_int_l/activation	vas_lat_l/activation	med_gas_l/activation	lat_gas_l/activation	soleus_l/activation	tib_post_l/activation	flex_dig_l/activation	flex_hal_l/activation	tib_ant_l/activation	per_brev_l/activation	per_long_l/activation	per_tert_l/activation	ext_dig_l/activation	ext_hal_l/activation	ercspn_l/activation	intobl_l/activation	extobl_l/activation	glut_med1_r/activation	glut_med2_r/activation	glut_med3_r/activation	glut_min1_r/activation	glut_min2_r/activation	glut_min3_r/activation	semimem_r/activation	semiten_r/activation	bifemlh_r/activation	bifemsh_r/activation	sar_r/activation	add_long_r/activation	add_brev_r/activation	add_mag1_r/activation	add_mag2_r/activation	add_mag3_r/activation	tfl_r/activation	pect_r/activation	grac_r/activation	glut_max1_r/activation	glut_max2_r/activation	glut_max3_r/activation	iliacus_r/activation	psoas_r/activation	quad_fem_r/activation	gem_r/activation	peri_r/activation	rect_fem_r/activation	vas_med_r/activation	vas_int_r/activation	vas_lat_r/activation	med_gas_r/activation	lat_gas_r/activation	soleus_r/activation	tib_post_r/activation	flex_dig_r/activation	flex_hal_r/activation	tib_ant_r/activation	per_brev_r/activation	per_long_r/activation	per_tert_r/activation	ext_dig_r/activation	ext_hal_r/activation	ercspn_r/activation	intobl_r/activation	extobl_r/activation	
          0.00000000	         -2.92965864	         -2.18622853	          5.31974915	          0.00000000	          0.85847616	         -0.00238994	        -18.13254243	         -1.59865591	          7.13189235	         31.69091995	          3.05755110	         -1.94799752	         -6.01844188	        -14.68056741	          1.35205492	          7.48550268	          9.64933530	         -2.99665766	          1.27458668	          0.04400831	         20.49181280	         -0.12602933	         -1.99049260	          0.54004025	         -1.90920719	          7.94601587	        -13.45199091	         17.57497026	         -8.32921778	        -13.52020342	          7.72545833	         34.42132856	         13.79601104	         86.51662706	         86.51662706	          0.32650578	          0.11402457	          0.08199596	          0.33071072	          0.22045499	          0.11403174	          0.05000385	          0.05000082	          0.05000059	          0.07592754	          0.11405732	          0.05000064	          0.05000056	          0.05000070	          0.05000172	          0.05000136	          0.32824160	          0.05000275	          0.05000156	          0.05003394	          0.05000952	          0.05000348	          0.39112564	          0.64071816	          0.05000071	          0.05000227	          0.05558286	          0.20407547	          0.05000575	          0.05000353	          0.05000375	          0.33197558	          0.44645246	          0.31544786	          0.27479487	          0.29169421	          0.38416639	          0.05000019	          0.05940171	          0.15895652	          0.05000113	          0.05000032	          0.05000097	          0.05000010	          0.05000006	          0.05000014	          0.05000522	          0.05000090	          0.05895892	          0.05000069	          0.05000090	          0.05000412	          0.05896328	          0.05896346	          0.21554439	          0.05000208	          0.05000598	          0.11421409	          0.16505975	          0.18944452	          0.16028001	          0.11017448	          0.05896435	          0.05020877	          0.05906351	          0.05900401	          0.06952949	          0.10091331	          0.05000063	          0.05000085	          0.17603070	          0.05000482	          0.05000152	          0.05000091	          0.09307414	          0.09774824	          0.08270139	          0.05727738	          0.05001086	          0.05896267	          0.05000037	          0.05000587	          0.05001163	          0.49009322	          0.37200082	          0.21662236	          0.27283296	          0.53674743	          0.26352226	          0.07118916	          0.11129175	          0.11402821	
          0.01075537	         -2.92502482	         -2.28448820	          5.61322153	          0.01599952	          0.85741057	         -0.00219349	        -18.00067116	         -1.90184862	          6.91025592	         31.11567906	          3.42958902	         -1.75116893	         -7.95400144	        -14.60445064	          0.62604368	          6.90667253	         10.60176783	         -3.47162376	          1.23185005	          0.05092761	         21.61118898	         -0.10647447	         -1.80358493	          0.76384804	         -1.98233649	          7.82814532	        -13.45971679	         17.80599613	         -9.34781774	        -13.51264596	          7.60920692	         35.53222620	         13.63337874	         86.51662706	         86.51662706	          0.27687473	          0.09669206	          0.06953219	          0.28044061	          0.18694438	          0.09669824	          0.05004109	          0.05000339	          0.05000553	          0.06438609	          0.09672049	          0.12160776	          0.06874005	          0.06928357	          0.05022922	          0.06952919	          0.27834694	          0.05570257	          0.05002720	          0.05001205	          0.05000910	          0.05001349	          0.33167176	          0.56524689	          0.05000340	          0.05895977	          0.05896355	          0.17305477	          0.05008238	          0.18693960	          0.16614677	          0.28151272	          0.37858839	          0.26858834	          0.24729619	          0.24736164	          0.32577473	          0.05000016	          0.05037288	          0.15735858	          0.05000068	          0.05000021	          0.05000075	          0.05000015	          0.06953247	          0.05000021	          0.05880989	          0.05127450	          0.05000061	          0.05896442	          0.05896163	          0.05000269	          0.05000060	          0.05000136	          0.18280367	          0.05000170	          0.05000666	          0.09685973	          0.13997116	          0.24280400	          0.17619383	          0.09385241	          0.05000197	          0.05001947	          0.05008724	          0.05004610	          0.05896196	          0.11779165	          0.05118870	          0.06795999	          0.52011550	          0.13483708	          0.08626124	          0.06953341	          0.18534033	          0.19264700	          0.16438701	          0.05000004	          0.05000011	          0.05000001	          0.05000116	          0.05896425	          0.05025276	          0.54343500	          0.33011586	          0.22668975	          0.42194331	          0.57300096	          0.24415264	          0.06036789	          0.09437457	          0.09669508	
          0.02151075	         -2.91634382	         -2.38122402	          5.88240907	          0.03230059	          0.85636044	         -0.00200854	        -17.79513936	         -2.19805850	          6.67605255	         30.40991252	          3.74322300	         -1.48814344	        -10.02048061	        -15.02645099	         -0.25460888	          6.28646326	         11.51143904	         -3.96856228	          1.16258749	         -0.03963901	         22.60988333	         -0.15148898	         -1.59420663	          0.99308869	         -2.04566539	          7.62258987	        -13.46640136	         17.96502361	        -10.38942086	        -13.50800356	          7.52193054	         36.61229379	         13.52953780	         86.51662706	         86.51662706	          0.35334050	          0.08199422	          0.05896298	          0.23781230	          0.15852767	          0.08199953	          0.05000867	          0.05000376	          0.05000389	          0.05459912	          0.08201924	          0.14134228	          0.12873152	          0.05898515	          0.05896678	          0.05896494	          0.23603802	          0.08574283	          0.05194730	          0.05015386	          0.05028876	          0.05896067	          0.28125567	          0.53980634	          0.05896232	          0.05001056	          0.05000110	          0.14674924	          0.09771684	          0.15852550	          0.14089389	          0.23872059	          0.32104006	          0.22776082	          0.20970560	          0.20976179	          0.27625518	          0.05000012	          0.05000138	          0.17917181	          0.05000047	          0.05000013	          0.05000061	          0.05677011	          0.05896304	          0.05025565	          0.25662874	          0.05000037	          0.28524650	          0.05000188	          0.05000079	          0.23256549	          0.07674218	          0.05000326	          0.16559780	          0.05000070	          0.05000230	          0.08224326	          0.23012563	          0.20589771	          0.14942954	          0.12993104	          0.05000236	          0.05900750	          0.12804970	          0.05000060	          0.05000065	          0.09991422	          0.05896225	          0.05763409	          0.44105405	          0.11434121	          0.15582801	          0.05896385	          0.15716743	          0.16336348	          0.13939914	          0.05896882	          0.05896880	          0.05896322	          0.05896286	          0.05000198	          0.05000218	          0.46082869	          0.34783926	          0.19223161	          0.35780565	          0.58474407	          0.20703972	          0.05119160	          0.10423918	          0.08199669	
          0.03226612	         -2.90524216	         -2.47715001	          6.11959041	          0.04874774	          0.85532902	         -0.00181316	        -17.49682549	         -2.48478246	          6.43640449	         29.57671591	          4.01726080	         -1.21541463	        -12.23123253	        -15.46358204	         -1.28558992	          5.82378996	         12.36262843	         -4.46027187	          1.08326372	         -0.02187971	         23.42138360	         -0.16099071	         -1.37818872	          1.22723099	         -2.10009182	          7.35067470	        -13.47678129	         18.06412745	        -11.41279144	        -13.50648410	          7.47834894	         37.65304842	         13.45802568	         86.51662706	         86.51662706	          0.30644364	          0.06953059	          0.05000075	          0.35595493	          0.13443061	          0.06953519	          0.05001466	          0.05000084	          0.05000078	          0.05000109	          0.06955472	          0.13163870	          0.10916391	          0.05001971	          0.05000580	          0.05000326	          0.24903830	          0.07272469	          0.05000276	          0.05000631	          0.05000397	          0.05000294	          0.23850347	          0.50231090	          0.05000067	          0.05000341	          0.05000229	          0.13445911	          0.08286486	          0.13443250	          0.12491874	          0.20243320	          0.27223950	          0.19313940	          0.17782889	          0.17787695	          0.23426267	          0.05000027	          0.09018006	          0.18520912	          0.05000079	          0.05000366	          0.05000107	          0.07589440	          0.05000023	          0.05000015	          0.31423044	          0.28298175	          0.35881525	          0.18202663	          0.21352514	          0.19721590	          0.06507714	          0.09138117	          0.14042580	          0.08199712	          0.05054150	          0.06974180	          0.19514486	          0.17460022	          0.12671612	          0.14748130	          0.05000185	          0.05003925	          0.10858651	          0.21768824	          0.16658559	          0.12536853	          0.05000042	          0.05000044	          0.37401075	          0.09696150	          0.13214201	          0.05000103	          0.13327750	          0.15562626	          0.11821053	          0.05000519	          0.05000525	          0.05000038	          0.05000014	          0.05896319	          0.05536871	          0.58704712	          0.42506092	          0.21758644	          0.62598338	          0.63822222	          0.33051877	          0.07637998	          0.09104389	          0.06953258	
